# xmcd
#
# Track frame offsets: 
#        150
#        12120
#        21237
#        73590
#        123297
#
# Disc length: 2075 seconds
#
# Revision: 3
# Processed by: cddbd v1.5.2PL0 Copyright (c) Steve Scherf et al.
# Submitted via: ExactAudioCopy v0.99pb5
#
DISCID=37081905
DTITLE=Clifford Brown - The Beginning And The End
DYEAR=1956
DGENRE=Jazz
TTITLE0=I Come From Jamiaca
TTITLE1=Ida Red
TTITLE2=Walkin'
TTITLE3=A Night In Tunisia
TTITLE4=Donna Lee
EXTD=YEAR: 1956
EXTT0=
EXTT1=
EXTT2=
EXTT3=
EXTT4=
PLAYORDER=
